<?xml version="1.0" encoding="iso-8859-1"?>
<!-- Uploaded to: SVG Repo, www.svgrepo.com, Generator: SVG Repo Mixer Tools -->
<!DOCTYPE svg PUBLIC "-//W3C//DTD SVG 1.1//EN" "http://www.w3.org/Graphics/SVG/1.1/DTD/svg11.dtd">
<svg fill="#000000" height="300px" width="300px" version="1.1" id="Capa_1" xmlns="http://www.w3.org/2000/svg" xmlns:xlink="http://www.w3.org/1999/xlink" 
	 viewBox="0 0 438.795 438.795" xml:space="preserve">
<path d="M180.349,238.031v65.276c0,5.523-4.477,10-10,10s-10-4.477-10-10v-65.276c0-5.523,4.477-10,10-10
	S180.349,232.509,180.349,238.031z M97.506,67.789c1.682-44.887,38.677-66.602,72.339-67.783c0.233-0.009,0.468-0.009,0.701,0
	c13.761,0.482,28.081,4.397,40.315,11.922c0.677,0.331,1.307,0.733,1.88,1.196c16.752,11.017,29.19,29.076,30.147,54.665
	c1.388,37.1-12.439,67.065-37.937,82.213c-10.718,6.368-22.736,9.552-34.754,9.552s-24.034-3.184-34.753-9.551
	C109.947,134.855,96.119,104.889,97.506,67.789z M145.661,132.809c15.136,8.992,33.941,8.991,49.076,0
	c19.006-11.292,29.272-34.717,28.166-64.271c-0.481-12.859-4.945-23.035-11.754-30.68c-9.953,20.421-30.354,34.238-56.235,37.23
	c-5.488,0.634-10.448-3.299-11.083-8.786c-0.634-5.486,3.299-10.448,8.786-11.082c16.122-1.864,34.683-10.616,42.004-29.447
	c-7.603-3.535-16.049-5.428-24.424-5.766c-25.426,1.024-51.499,16.389-52.703,48.531
	C116.387,98.091,126.654,121.517,145.661,132.809z M233.339,232.063c2.691,4.823,8.744,6.552,13.567,3.86
	c4.823-2.691,6.532-8.782,3.841-13.605c-13.471-24.143-41.129-39.766-73.263-41.807c-2.281-0.145-4.585-0.221-6.908-0.227
	c-0.253-0.009-4.984,0.077-7.105,0.207c-36.219,2.22-74.038,22.393-81.824,64.439L58.073,372.163
	c-0.542,2.921,0.244,5.837,2.144,8.121s4.716,3.51,7.687,3.51h102.291c5.523,0,10-4.477,10-10s-4.477-10-10-10H79.928
	l21.458-115.318c5.493-29.664,31.963-44.657,58.963-47.638v4.485c0,5.523,4.477,10,10,10s10-4.477,10-10v-4.517
	C203.349,203.334,223.721,214.827,233.339,232.063z M380.889,330.265c0,5.522-4.38,10-9.903,10c-0.28,0-0.637-0.012-0.637-0.034
	v88.563c0,5.523-4.863,10-10.386,10H222.51c-5.523,0-10.161-4.477-10.161-10V270.67c0-5.523,4.638-9.875,10.161-9.875h137.453
	c5.523,0,10.386,4.352,10.386,9.875v21.719c0-0.022,0.356-0.034,0.635-0.034c5.522,0,9.807,4.477,9.807,9.999L380.889,330.265z
	 M350.349,280.795h-118v138h118V280.795z M252.349,387.795v-0.227c0-1.168,0.156-2.29,0.524-3.332l4.821-25.117
	c1.279-6.634,4.962-12.344,10.249-16.551c-3.049-4.488-4.834-9.9-4.834-15.715c0-15.472,12.583-28.059,28.049-28.059h0.161
	c15.479,0,28.077,12.59,28.077,28.065c0,5.743-1.732,11.093-4.708,15.548c5.27,4.15,8.914,9.828,10.205,16.524l5.226,26.542
	c0.125,0.634,0.231,1.278,0.231,1.924v0.396c0,5.004-3.709,9.15-8.508,9.884c-5.555,1.347-17.544,3.158-30.581,3.158
	c-14.024,0-25.671-1.975-30.609-3.179C255.914,396.87,252.349,392.754,252.349,387.795z M283.108,326.853
	c0,4.424,3.6,8.035,8.024,8.049c0.167,0,0.332,0.005,0.497,0.014c4.3-0.143,7.759-3.707,7.759-8.056
	c0-4.372-3.696-8.065-8.071-8.065h-0.161C286.719,318.795,283.108,322.41,283.108,326.853z M274.073,379.729
	c4.744,0.605,10.758,1.108,17.165,1.108c6.482,0,12.558-0.514,17.324-1.128l-3.325-16.959c-1.032-5.354-7.907-7.805-13.86-7.829
	c-0.173-0.001-0.344-0.006-0.514-0.015c-5.847,0.102-12.494,2.625-13.533,8.01L274.073,379.729z"/>
</svg>